<svg xmlns="http://www.w3.org/2000/svg" xmlns:xlink="http://www.w3.org/1999/xlink" width="500" zoomAndPan="magnify" viewBox="0 0 375 374.999991" height="500" preserveAspectRatio="xMidYMid meet" version="1.0"><defs><g/></defs><g fill="#da6220" fill-opacity="1"><g transform="translate(85.212154, 277.394412)"><g><path d="M 11.523438 -100.839844 C 11.523438 -41.777344 57.621094 4.320312 118.125 4.320312 C 172.867188 4.320312 198.796875 -27.371094 198.796875 -27.371094 L 164.222656 -82.113281 C 164.222656 -82.113281 146.9375 -66.265625 126.769531 -66.265625 C 106.601562 -66.265625 92.195312 -80.671875 92.195312 -100.839844 C 92.195312 -121.007812 106.601562 -135.414062 126.769531 -135.414062 C 146.9375 -135.414062 164.222656 -119.566406 164.222656 -119.566406 L 198.796875 -174.308594 C 198.796875 -174.308594 172.867188 -206 118.125 -206 C 57.621094 -206 11.523438 -159.902344 11.523438 -100.839844 Z M 11.523438 -100.839844 "/></g></g></g></svg>