<svg xmlns="http://www.w3.org/2000/svg" xmlns:xlink="http://www.w3.org/1999/xlink" width="500" zoomAndPan="magnify" viewBox="0 0 375 374.999991" height="500" preserveAspectRatio="xMidYMid meet" version="1.0"><defs><g/></defs><g fill="#da6220" fill-opacity="1"><g transform="translate(31.314464, 277.394412)"><g><path d="M 11.523438 -100.839844 C 11.523438 -41.777344 57.621094 4.320312 118.125 4.320312 C 172.867188 4.320312 198.796875 -27.371094 198.796875 -27.371094 L 164.222656 -82.113281 C 164.222656 -82.113281 146.9375 -66.265625 126.769531 -66.265625 C 106.601562 -66.265625 92.195312 -80.671875 92.195312 -100.839844 C 92.195312 -121.007812 106.601562 -135.414062 126.769531 -135.414062 C 146.9375 -135.414062 164.222656 -119.566406 164.222656 -119.566406 L 198.796875 -174.308594 C 198.796875 -174.308594 172.867188 -206 118.125 -206 C 57.621094 -206 11.523438 -159.902344 11.523438 -100.839844 Z M 11.523438 -100.839844 "/></g></g></g><g fill="#da6220" fill-opacity="1"><g transform="translate(203.246696, 191.077605)"><g><path d="M 11 -7.597656 C 7 -7.597656 4.199219 -10.199219 4.199219 -10.199219 L 0.398438 -4.199219 C 0.398438 -4.199219 4 0.601562 12.800781 0.601562 C 19.796875 0.601562 24.199219 -3.800781 24.199219 -8.398438 C 24.199219 -17.199219 13.398438 -17.199219 13.398438 -19.199219 C 13.398438 -19.796875 14 -20.398438 15 -20.398438 C 17.800781 -20.398438 20.199219 -18.199219 20.199219 -18.199219 L 24 -24.199219 C 24 -24.199219 20.398438 -28.597656 13.199219 -28.597656 C 6.199219 -28.597656 1.800781 -24.199219 1.800781 -19.597656 C 1.800781 -10.800781 12.597656 -10.800781 12.597656 -8.800781 C 12.597656 -8.199219 12 -7.597656 11 -7.597656 Z M 11 -7.597656 "/></g></g></g><g fill="#da6220" fill-opacity="1"><g transform="translate(228.244207, 191.077605)"><g><path d="M 12.800781 -28 L 2.398438 -28 L 2.398438 0 L 12.800781 0 L 12.800781 -9.597656 L 19.199219 -9.597656 L 19.199219 0 L 29.597656 0 L 29.597656 -28 L 19.199219 -28 L 19.199219 -18.398438 L 12.800781 -18.398438 Z M 12.800781 -28 "/></g></g></g><g fill="#da6220" fill-opacity="1"><g transform="translate(260.241028, 191.077605)"><g><path d="M 21.597656 -14 C 21.597656 -11.199219 19.597656 -9.199219 17.199219 -9.199219 C 14.800781 -9.199219 12.800781 -11.199219 12.800781 -14 C 12.800781 -16.800781 14.800781 -18.796875 17.199219 -18.796875 C 19.597656 -18.796875 21.597656 -16.800781 21.597656 -14 Z M 32.796875 -14 C 32.796875 -22.199219 26.398438 -28.597656 17.199219 -28.597656 C 8 -28.597656 1.601562 -22.199219 1.601562 -14 C 1.601562 -5.800781 8 0.601562 17.199219 0.601562 C 26.398438 0.601562 32.796875 -5.800781 32.796875 -14 Z M 32.796875 -14 "/></g></g></g><g fill="#da6220" fill-opacity="1"><g transform="translate(294.637605, 191.077605)"><g><path d="M 25.597656 -28 L 16.398438 -28 L 13.398438 -12.597656 L 11.199219 -28 L 0.398438 -28 L 6.398438 0 L 18 0 L 21 -14.199219 L 24 0 L 35.597656 0 L 41.597656 -28 L 30.796875 -28 L 28.597656 -12.597656 Z M 25.597656 -28 "/></g></g></g></svg>